<mxfile host="app.diagrams.net" agent="Mozilla/5.0 (Windows NT 10.0; Win64; x64) AppleWebKit/537.36 (KHTML, like Gecko) Chrome/135.0.0.0 Safari/537.36" version="27.0.1">
  <diagram name="Pagina-1" id="88rqKn-kRWn1IQCB_Tzr">
    <mxGraphModel dx="1426" dy="777" grid="1" gridSize="10" guides="1" tooltips="1" connect="1" arrows="1" fold="1" page="1" pageScale="1" pageWidth="827" pageHeight="1169" math="0" shadow="0">
      <root>
        <mxCell id="0" />
        <mxCell id="1" parent="0" />
        <mxCell id="uWzpOT1AdCiu_1bDRIk7-3" style="edgeStyle=orthogonalEdgeStyle;rounded=0;orthogonalLoop=1;jettySize=auto;html=1;" edge="1" parent="1" source="uWzpOT1AdCiu_1bDRIk7-1" target="uWzpOT1AdCiu_1bDRIk7-2">
          <mxGeometry relative="1" as="geometry" />
        </mxCell>
        <mxCell id="uWzpOT1AdCiu_1bDRIk7-1" value="Start game" style="rounded=1;whiteSpace=wrap;html=1;fillColor=#dae8fc;strokeColor=#6c8ebf;" vertex="1" parent="1">
          <mxGeometry x="350" y="130" width="120" height="60" as="geometry" />
        </mxCell>
        <mxCell id="uWzpOT1AdCiu_1bDRIk7-5" style="edgeStyle=orthogonalEdgeStyle;rounded=0;orthogonalLoop=1;jettySize=auto;html=1;exitX=0.5;exitY=1;exitDx=0;exitDy=0;entryX=0.5;entryY=0;entryDx=0;entryDy=0;" edge="1" parent="1" source="uWzpOT1AdCiu_1bDRIk7-2" target="uWzpOT1AdCiu_1bDRIk7-4">
          <mxGeometry relative="1" as="geometry" />
        </mxCell>
        <mxCell id="uWzpOT1AdCiu_1bDRIk7-2" value="Genereer een random word" style="rounded=1;whiteSpace=wrap;html=1;fillColor=#d5e8d4;strokeColor=#82b366;" vertex="1" parent="1">
          <mxGeometry x="350" y="210" width="120" height="60" as="geometry" />
        </mxCell>
        <mxCell id="uWzpOT1AdCiu_1bDRIk7-7" style="edgeStyle=orthogonalEdgeStyle;rounded=0;orthogonalLoop=1;jettySize=auto;html=1;entryX=0.5;entryY=0;entryDx=0;entryDy=0;" edge="1" parent="1" source="uWzpOT1AdCiu_1bDRIk7-4" target="uWzpOT1AdCiu_1bDRIk7-6">
          <mxGeometry relative="1" as="geometry" />
        </mxCell>
        <mxCell id="uWzpOT1AdCiu_1bDRIk7-4" value="Speler gokt een word" style="rounded=1;whiteSpace=wrap;html=1;fillColor=#fff2cc;strokeColor=#d6b656;" vertex="1" parent="1">
          <mxGeometry x="350" y="290" width="120" height="60" as="geometry" />
        </mxCell>
        <mxCell id="uWzpOT1AdCiu_1bDRIk7-9" style="edgeStyle=orthogonalEdgeStyle;rounded=0;orthogonalLoop=1;jettySize=auto;html=1;" edge="1" parent="1" source="uWzpOT1AdCiu_1bDRIk7-6" target="uWzpOT1AdCiu_1bDRIk7-8">
          <mxGeometry relative="1" as="geometry" />
        </mxCell>
        <mxCell id="uWzpOT1AdCiu_1bDRIk7-10" value="Nee" style="edgeLabel;html=1;align=center;verticalAlign=middle;resizable=0;points=[];" vertex="1" connectable="0" parent="uWzpOT1AdCiu_1bDRIk7-9">
          <mxGeometry x="-0.3667" y="3" relative="1" as="geometry">
            <mxPoint as="offset" />
          </mxGeometry>
        </mxCell>
        <mxCell id="uWzpOT1AdCiu_1bDRIk7-14" style="edgeStyle=orthogonalEdgeStyle;rounded=0;orthogonalLoop=1;jettySize=auto;html=1;entryX=0.5;entryY=0;entryDx=0;entryDy=0;" edge="1" parent="1" source="uWzpOT1AdCiu_1bDRIk7-6" target="uWzpOT1AdCiu_1bDRIk7-13">
          <mxGeometry relative="1" as="geometry" />
        </mxCell>
        <mxCell id="uWzpOT1AdCiu_1bDRIk7-15" value="Ja" style="edgeLabel;html=1;align=center;verticalAlign=middle;resizable=0;points=[];" vertex="1" connectable="0" parent="uWzpOT1AdCiu_1bDRIk7-14">
          <mxGeometry x="-0.3091" y="-2" relative="1" as="geometry">
            <mxPoint as="offset" />
          </mxGeometry>
        </mxCell>
        <mxCell id="uWzpOT1AdCiu_1bDRIk7-6" value="Correct?" style="rhombus;whiteSpace=wrap;html=1;fillColor=#e1d5e7;strokeColor=#9673a6;" vertex="1" parent="1">
          <mxGeometry x="370" y="390" width="80" height="80" as="geometry" />
        </mxCell>
        <mxCell id="uWzpOT1AdCiu_1bDRIk7-11" style="edgeStyle=orthogonalEdgeStyle;rounded=0;orthogonalLoop=1;jettySize=auto;html=1;exitX=0.5;exitY=0;exitDx=0;exitDy=0;entryX=1;entryY=0.5;entryDx=0;entryDy=0;" edge="1" parent="1" source="uWzpOT1AdCiu_1bDRIk7-8" target="uWzpOT1AdCiu_1bDRIk7-4">
          <mxGeometry relative="1" as="geometry" />
        </mxCell>
        <mxCell id="uWzpOT1AdCiu_1bDRIk7-12" value="Ja" style="edgeLabel;html=1;align=center;verticalAlign=middle;resizable=0;points=[];" vertex="1" connectable="0" parent="uWzpOT1AdCiu_1bDRIk7-11">
          <mxGeometry x="0.04" y="3" relative="1" as="geometry">
            <mxPoint as="offset" />
          </mxGeometry>
        </mxCell>
        <mxCell id="uWzpOT1AdCiu_1bDRIk7-18" style="edgeStyle=orthogonalEdgeStyle;rounded=0;orthogonalLoop=1;jettySize=auto;html=1;exitX=0.5;exitY=1;exitDx=0;exitDy=0;entryX=1;entryY=0.5;entryDx=0;entryDy=0;" edge="1" parent="1" source="uWzpOT1AdCiu_1bDRIk7-8" target="uWzpOT1AdCiu_1bDRIk7-16">
          <mxGeometry relative="1" as="geometry" />
        </mxCell>
        <mxCell id="uWzpOT1AdCiu_1bDRIk7-19" value="Nee" style="edgeLabel;html=1;align=center;verticalAlign=middle;resizable=0;points=[];" vertex="1" connectable="0" parent="uWzpOT1AdCiu_1bDRIk7-18">
          <mxGeometry x="-0.5229" relative="1" as="geometry">
            <mxPoint as="offset" />
          </mxGeometry>
        </mxCell>
        <mxCell id="uWzpOT1AdCiu_1bDRIk7-8" value="Heeft de speler nog een gok?" style="rhombus;whiteSpace=wrap;html=1;fillColor=#e1d5e7;strokeColor=#9673a6;" vertex="1" parent="1">
          <mxGeometry x="510" y="390" width="80" height="80" as="geometry" />
        </mxCell>
        <mxCell id="uWzpOT1AdCiu_1bDRIk7-17" style="edgeStyle=orthogonalEdgeStyle;rounded=0;orthogonalLoop=1;jettySize=auto;html=1;entryX=0.5;entryY=0;entryDx=0;entryDy=0;" edge="1" parent="1" source="uWzpOT1AdCiu_1bDRIk7-13" target="uWzpOT1AdCiu_1bDRIk7-16">
          <mxGeometry relative="1" as="geometry" />
        </mxCell>
        <mxCell id="uWzpOT1AdCiu_1bDRIk7-13" value="Speler grijpt een bal" style="rounded=1;whiteSpace=wrap;html=1;fillColor=#fff2cc;strokeColor=#d6b656;" vertex="1" parent="1">
          <mxGeometry x="350" y="525" width="120" height="60" as="geometry" />
        </mxCell>
        <mxCell id="uWzpOT1AdCiu_1bDRIk7-20" style="edgeStyle=orthogonalEdgeStyle;rounded=0;orthogonalLoop=1;jettySize=auto;html=1;exitX=0;exitY=0.5;exitDx=0;exitDy=0;entryX=0;entryY=0.5;entryDx=0;entryDy=0;" edge="1" parent="1" source="uWzpOT1AdCiu_1bDRIk7-16" target="uWzpOT1AdCiu_1bDRIk7-2">
          <mxGeometry relative="1" as="geometry" />
        </mxCell>
        <mxCell id="uWzpOT1AdCiu_1bDRIk7-21" value="Nee" style="edgeLabel;html=1;align=center;verticalAlign=middle;resizable=0;points=[];" vertex="1" connectable="0" parent="uWzpOT1AdCiu_1bDRIk7-20">
          <mxGeometry x="0.1548" y="1" relative="1" as="geometry">
            <mxPoint as="offset" />
          </mxGeometry>
        </mxCell>
        <mxCell id="uWzpOT1AdCiu_1bDRIk7-22" style="edgeStyle=orthogonalEdgeStyle;rounded=0;orthogonalLoop=1;jettySize=auto;html=1;exitX=0.5;exitY=1;exitDx=0;exitDy=0;" edge="1" parent="1" source="uWzpOT1AdCiu_1bDRIk7-16">
          <mxGeometry relative="1" as="geometry">
            <mxPoint x="414" y="770" as="targetPoint" />
          </mxGeometry>
        </mxCell>
        <mxCell id="uWzpOT1AdCiu_1bDRIk7-24" value="Ja" style="edgeLabel;html=1;align=center;verticalAlign=middle;resizable=0;points=[];" vertex="1" connectable="0" parent="uWzpOT1AdCiu_1bDRIk7-22">
          <mxGeometry x="-0.1684" y="-1" relative="1" as="geometry">
            <mxPoint as="offset" />
          </mxGeometry>
        </mxCell>
        <mxCell id="uWzpOT1AdCiu_1bDRIk7-16" value="Win/verlies conditie?" style="rhombus;whiteSpace=wrap;html=1;fillColor=#e1d5e7;strokeColor=#9673a6;" vertex="1" parent="1">
          <mxGeometry x="374" y="640" width="80" height="80" as="geometry" />
        </mxCell>
        <mxCell id="uWzpOT1AdCiu_1bDRIk7-23" value="Spel eindigt win/verlies" style="rounded=1;whiteSpace=wrap;html=1;fillColor=#dae8fc;strokeColor=#6c8ebf;" vertex="1" parent="1">
          <mxGeometry x="354" y="770" width="120" height="60" as="geometry" />
        </mxCell>
      </root>
    </mxGraphModel>
  </diagram>
</mxfile>
